HIERARCHY
ROOT pelvis
{
  OFFSET 0 100 0
  CHANNELS 6 Xposition Yposition Zposition Zrotation Xrotation Yrotation
  JOINT pelvis_right_femur
  {
    OFFSET -10.78128 -3.44521 -0.5502486
    CHANNELS 3 Zrotation Xrotation Yrotation
    JOINT right_femur_tibia
    {
      OFFSET -0.8047443 -44.0398 -0.1307829
      CHANNELS 3 Zrotation Xrotation Yrotation
      JOINT right_tibia_foot
      {
        OFFSET 3.006224 -47.83518 -5
        CHANNELS 3 Zrotation Xrotation Yrotation
        End Site
        {
          OFFSET 0 -5 15
        }
      }
    }
  }
  JOINT pelvis_left_femur
  {
    OFFSET 10.78128 -3.44521 -0.5502486
    CHANNELS 3 Zrotation Xrotation Yrotation
    JOINT left_femur_tibia
    {
      OFFSET 0.8047443 -44.0398 -0.1307829
      CHANNELS 3 Zrotation Xrotation Yrotation
      JOINT left_tibia_foot
      {
        OFFSET -4.370144 -48.10324 -4.275266
        CHANNELS 3 Zrotation Xrotation Yrotation
        End Site
        {
          OFFSET 0 -5 15
        }
      }
    }
  }
  JOINT pelvis_spine1
  {
    OFFSET 0 6.468898 -3.129235
    CHANNELS 3 Zrotation Xrotation Yrotation
    JOINT spine1
    {
      OFFSET 0 23.15396 4.99043
      CHANNELS 3 Zrotation Xrotation Yrotation
      JOINT spine2
      {
        OFFSET 0 20.79997 -5.064912
        CHANNELS 3 Zrotation Xrotation Yrotation
        JOINT neck
        {
          OFFSET 0 14.38658 9.616178
          CHANNELS 3 Zrotation Xrotation Yrotation
          End Site
          {
            OFFSET 0 20 0
          }
        }
      }
      JOINT right_manubrium
      {
        OFFSET -5.722621 16.35077 3.967754
        CHANNELS 3 Zrotation Xrotation Yrotation
        JOINT right_clavicle
        {
          OFFSET -13.16364 1.694482 -4.693211
          CHANNELS 3 Zrotation Xrotation Yrotation
          JOINT right_humerus
          {
            OFFSET -28.5034 -0.3100689 -2.792744
            CHANNELS 3 Zrotation Xrotation Yrotation
            JOINT right_radius
            {
              OFFSET -25.15693 0.02248979 -1.271978
              CHANNELS 3 Zrotation Xrotation Yrotation
              End Site
              {
                OFFSET -15 0 0
              }
            }
          }
        }
      }
      JOINT left_manubrium
      {
        OFFSET 5.722621 16.35077 3.967754
        CHANNELS 3 Zrotation Xrotation Yrotation
        JOINT left_clavicle
        {
          OFFSET 13.16364 1.694482 -4.693211
          CHANNELS 3 Zrotation Xrotation Yrotation
          JOINT left_humerus
          {
            OFFSET 29.39168 -1.063119 -2.237045
            CHANNELS 3 Zrotation Xrotation Yrotation
            JOINT left_radius
            {
              OFFSET 24.59957 -0.9528479 0.9047498
              CHANNELS 3 Zrotation Xrotation Yrotation
              End Site
              {
                OFFSET 15 -0 -0
              }
            }
          }
        }
      }
    }
  }
}
MOTION
Frames: 17
Frame Time: 0.0416666666667
0 103.5113 0 2.609713 0.8171224 0.2378245 2.686495 -15.33157 10.34842 -0 38.36538 -0 -5.142066 -18.59355 -2.238515 -9.455454 8.658209 -22.78839 -0 3.792499 -0 22.72927 -9.0418 30.66864 -2.511885 -2.850103 5.274731 2.754764 10.01631 -7.731301 1.6572 21.29427 5.463641 2.203204 -25.50796 9.013243 4.98639 -20.40919 11.16042 85.8779 34.77254 -18.07902 -0 0 16.59982 -8.526644 8.658273 4.73476 6.261583 -20.32208 -0.5435064 -92.93281 22.3345 22.07317 0 0 -13.51406 12.64027 15.61689 -0.8285279
0.2398884 103.4624 1.518109 1.92471 1.534741 0.4736934 4.063431 -17.75625 10.8738 -0 38.69499 -0 -5.728746 -17.15475 -2.12355 -9.114373 8.467977 -22.43203 -0 4.78679 -0 22.99681 -9.622445 30.9292 -2.40803 -2.754669 4.877115 3.022555 9.780492 -8.088961 1.557198 20.69438 6.104006 2.691564 -26.15739 9.279319 5.081273 -19.9013 11.28844 86.16006 34.59793 -18.87301 -0 0 16.06893 -8.607922 8.99393 4.654274 6.728997 -20.63467 -0.125467 -92.58556 21.80415 21.01503 0 0 -14.27662 12.75251 15.26156 -1.384243
0.512317 103.2022 3.462569 1.242791 1.317562 0.7041239 4.746989 -20.57245 8.571215 -0 34.03267 -0 -6.448478 -13.84686 -1.672155 -8.144796 10.11387 -21.56408 -0 5.91939 -0 17.90289 -13.89961 28.59248 -2.101844 -2.463471 4.965479 2.896852 9.746074 -7.929386 1.487481 20.7155 6.219405 2.891128 -25.93125 9.051036 5.205987 -19.44915 11.29709 85.91986 34.62321 -18.75568 -0 0 15.342 -9.018722 9.414291 5.166513 6.678686 -20.84236 -0.3597647 -92.44963 22.36766 20.84392 0 0 -15.32326 11.86933 15.05635 0.09205242
0.7979902 102.8996 5.642016 0.7244427 1.569375 0.9071571 5.431758 -22.75573 7.916015 -0 31.96279 -0 -6.855894 -11.977 -1.51732 -7.623703 10.73115 -21.01155 -0 6.65571 -0 15.66124 -15.87428 27.43158 -1.898725 -2.287832 4.877778 2.900247 9.63453 -7.9528 1.425484 20.55609 6.507273 3.187077 -25.99865 9.026149 5.381305 -18.97697 11.29948 85.89879 34.66412 -19.08476 -0 0 14.69791 -9.163845 9.770788 5.338022 6.830931 -21.08923 -0.3903919 -92.35082 22.74592 20.4581 0 0 -16.25029 11.31058 14.90339 0.9913473
1.084363 102.5042 8.187472 0.1893776 1.819605 1.129971 6.015342 -25.49612 6.545832 -0 28.95705 -0 -7.731025 -9.499225 -0.968069 -7.092919 11.49539 -20.03761 -0 7.779537 -0 13.58689 -17.72123 25.73433 -1.718811 -2.137402 4.814203 2.882613 9.537326 -7.953161 1.376563 20.45662 6.741611 3.440184 -26.01478 8.993661 5.561652 -18.55729 11.27913 85.88044 34.74624 -19.3966 -0 0 14.11856 -9.252088 10.07893 5.462303 6.947341 -21.30398 -0.4618531 -92.31908 23.22406 20.19923 0 0 -17.08433 10.73251 14.81765 1.961805
1.367794 102.0543 11.1043 -0.2948086 2.168462 1.387356 6.537707 -28.00243 5.429116 -0 26.29851 -0 -8.551058 -7.231662 -0.3994521 -6.666775 12.09017 -19.0574 -0 9.080438 -0 12.0343 -18.94988 24.13361 -1.553185 -2.003245 4.730928 2.876752 9.434197 -7.972088 1.329898 20.35038 6.984388 3.693091 -26.05133 8.981948 5.742076 -18.15038 11.25606 85.90103 34.82833 -19.76183 -0 0 13.56339 -9.303734 10.3676 5.541014 7.071163 -21.51327 -0.5264279 -92.30343 23.70211 19.94911 0 0 -17.88197 10.1695 14.7495 2.892911
1.644492 101.5856 14.47229 -0.7815262 2.53643 1.696804 7.014357 -30.40537 4.183644 -0 23.57505 -0 -9.532191 -4.793268 0.3617148 -6.271573 12.66084 -17.88101 -0 11.02523 -0 10.67675 -19.65154 22.29589 -1.399773 -1.874014 4.653396 2.86782 9.339307 -7.984959 1.285244 20.26852 7.199347 3.918595 -26.06544 8.961285 5.904233 -17.78035 11.23494 85.92861 34.90287 -20.09636 -0 0 13.0506 -9.359309 10.62468 5.620936 7.16351 -21.69558 -0.6094335 -92.29453 24.17333 19.74544 0 0 -18.61003 9.601256 14.6881 3.812142
1.915987 101.171 18.34484 -1.291817 2.879384 2.057815 7.505523 -32.37998 3.029058 -0 21.18751 -0 -10.57072 -2.385396 1.202249 -5.879656 13.13697 -16.60788 -0 13.83259 -0 9.29298 -19.72189 20.24857 -1.255244 -1.738364 4.587239 2.853708 9.255346 -7.984387 1.239417 20.21866 7.378318 4.111245 -26.04313 8.916808 6.042137 -17.44488 11.2214 85.94745 34.96385 -20.36809 -0 0 12.5699 -9.447003 10.85102 5.732511 7.208915 -21.84459 -0.7202233 -92.27662 24.62621 19.58328 0 0 -19.27026 9.011325 14.61603 4.735491
2.187757 100.9185 22.7741 -1.858533 3.126057 2.449497 8.075959 -33.65404 2.020936 -0 19.3466 -0 -11.67055 -0.09882852 2.080074 -5.444493 13.43096 -15.2271 -0 17.94424 -0 7.657077 -18.9995 17.89303 -1.123172 -1.589315 4.546257 2.828185 9.189603 -7.956519 1.191838 20.22123 7.498394 4.253687 -25.95973 8.829546 6.147081 -17.15653 11.21888 85.93394 35.01302 -20.52466 -0 0 12.12973 -9.591461 11.03584 5.903465 7.182578 -21.94406 -0.8722078 -92.24202 25.05307 19.47949 0 0 -19.8352 8.391752 14.52524 5.671994
2.471278 100.9668 27.77567 -2.485839 3.225836 2.821656 8.777734 -33.84491 1.330232 -0 18.27545 -0 -12.7147 1.79801 2.839052 -4.931336 13.33398 -13.78666 -0 23.68908 -0 5.584929 -17.3258 15.23667 -1.008831 -1.421754 4.542518 2.78521 9.146594 -7.888705 1.142448 20.29463 7.541104 4.333004 -25.79398 8.684064 6.214626 -16.92534 11.22895 85.86458 35.05899 -20.52135 -0 0 11.7388 -9.812392 11.17065 6.1545 7.064781 -21.97941 -1.075209 -92.18895 25.45696 19.45122 0 0 -20.28107 7.731193 14.4122 6.638238
2.782749 101.4561 33.30754 -3.119677 3.155408 3.092486 9.567564 -32.5554 1.083001 -0 17.91895 -0 -13.50624 2.982524 3.256742 -4.335355 12.52528 -12.32467 -0 31.23623 -0 3.04921 -14.60799 12.39194 -0.9216245 -1.233465 4.590363 2.716975 9.1298 -7.766527 1.092445 20.45755 7.487975 4.33707 -25.52467 8.467175 6.240371 -16.76755 11.25205 85.70991 35.11596 -20.30481 -0 0 11.41938 -10.13015 11.246 6.503151 6.83797 -21.93323 -1.333622 -92.12216 25.84365 19.52333 0 0 -20.57354 7.021022 14.27727 7.647094
3.136097 102.4682 39.24599 -3.610715 2.935721 3.162841 10.22801 -29.52318 1.311798 -0 17.79718 -0 -13.77846 3.160414 3.073046 -3.711607 10.62696 -10.88865 -0 40.27094 -0 0.2830256 -11.01458 9.654078 -0.8740434 -1.02506 4.702556 2.615951 9.138482 -7.577154 1.043542 20.72069 7.32952 4.261729 -25.13818 8.172608 6.221569 -16.70118 11.28816 85.43564 35.20139 -19.82011 -0 0 11.20554 -10.56762 11.25761 6.962972 6.494175 -21.78951 -1.639887 -92.05163 26.21716 19.71942 0 0 -20.67622 6.256326 14.12093 8.703596
3.526862 103.9549 45.38768 -3.723685 2.576544 2.952147 10.39087 -24.84283 1.883028 -0 17.0976 -0 -13.37203 2.257395 2.168209 -3.17855 7.373948 -9.536657 -0 49.80747 -0 -2.201506 -7.135105 7.475921 -0.8810579 -0.8001654 4.888412 2.477027 9.1676 -7.312188 0.9972073 21.07933 7.070454 4.114029 -24.63423 7.80377 6.156313 -16.74504 11.33844 85.00255 35.32923 -19.01156 -0 0 11.14408 -11.15547 11.21067 7.546018 6.039887 -21.53681 -1.968886 -91.98714 26.5631 20.05253 0 0 -20.55157 5.44643 13.93723 9.787138
3.917434 105.7085 51.48751 -3.247414 1.978493 2.449782 9.74828 -19.08455 2.513968 -0 15.23556 -0 -12.44428 0.5305035 0.7775005 -2.859556 2.823526 -8.380313 -0 58.26494 -0 -3.843616 -3.929689 6.34411 -0.9562354 -0.565564 5.151199 2.2996 9.210069 -6.972316 0.9536507 21.50399 6.736006 3.915842 -24.03145 7.376447 6.044549 -16.91382 11.40601 84.37297 35.49907 -17.83547 -0 0 11.28819 -11.93494 11.1269 8.262875 5.502486 -21.17565 -2.276221 -91.93057 26.83229 20.51204 0 0 -20.17115 4.62534 13.70599 10.83798
4.249859 107.4269 57.32622 -2.1861 0.9415595 1.760091 8.333449 -13.06244 2.858522 -0 12.47276 -0 -11.44482 -1.548282 -0.4956371 -2.7689 -2.606878 -7.567699 -0 63.95902 -0 -4.458472 -2.256133 6.555003 -1.105119 -0.3313059 5.490319 2.08443 9.263235 -6.568098 0.9120122 21.93857 6.370803 3.702151 -23.36236 6.917364 5.889024 -17.21568 11.4941 83.52197 35.68528 -16.2755 -0 0 11.69143 -12.95629 11.04746 9.119762 4.931025 -20.72464 -2.507745 -91.87289 26.94068 21.06373 0 0 -19.52882 3.850929 13.38991 11.76648
4.490926 108.8316 62.79152 -0.8584635 -0.5755158 1.080462 6.614177 -7.352209 2.752517 -0 9.743204 -0 -10.67784 -3.607321 -1.095694 -2.702073 -8.349713 -7.072039 -0 65.6332 -0 -4.423376 -2.235555 7.973833 -1.318806 -0.1108655 5.906025 1.825257 9.332744 -6.114982 0.8727302 22.31304 6.029529 3.51414 -22.65795 6.460493 5.69627 -17.65285 11.60049 82.4527 35.83593 -14.3595 -0 0 12.40512 -14.26303 11.02451 10.10722 4.388441 -20.21844 -2.620131 -91.80762 26.81054 21.67334 0 0 -18.65472 3.175184 12.94637 12.50526
4.66213 109.7293 67.93332 0.2463817 -2.261106 0.5502548 5.256147 -2.088362 2.471571 -0 7.780026 -0 -9.935342 -5.616914 -1.073225 -2.229513 -13.88088 -6.476841 -0 62.6788 -0 -4.221849 -3.134356 10.07223 -1.574632 0.07971207 6.398674 1.505762 9.425032 -5.626147 0.8405199 22.57007 5.762139 3.387568 -21.93628 6.043834 5.476895 -18.22172 11.71247 81.20698 35.88951 -12.16896 -0 0 13.4719 -15.85881 11.09912 11.18492 3.933797 -19.69277 -2.599999 -91.75698 26.43935 22.34067 0 0 -17.61544 2.598338 12.35643 13.07436
